<?xml version="1.0" encoding="utf-8"?>
<!-- Generator: Adobe Illustrator 18.0.0, SVG Export Plug-In . SVG Version: 6.00 Build 0)  -->
<!DOCTYPE svg PUBLIC "-//W3C//DTD SVG 1.1//EN" "http://www.w3.org/Graphics/SVG/1.1/DTD/svg11.dtd">
<svg version="1.1" id="Capa_1" xmlns="http://www.w3.org/2000/svg" xmlns:xlink="http://www.w3.org/1999/xlink" x="0px" y="0px"
	 viewBox="0 0 217 72.4" enable-background="new 0 0 217 72.4" xml:space="preserve">
<g>
	<circle fill="#FFFFFF" cx="35.8" cy="35.3" r="32.2"/>
	<g>
		<path fill="#002D4E" d="M36.2,0C16.2,0,0,16.2,0,36.2c0,20,16.2,36.2,36.2,36.2c20,0,36.2-16.2,36.2-36.2C72.4,16.2,56.2,0,36.2,0
			z M36.2,66.9c-17,0-30.8-13.8-30.8-30.8c0-17,13.8-30.7,30.8-30.7c17,0,30.8,13.8,30.8,30.7C66.9,53.2,53.2,66.9,36.2,66.9z
			 M45.2,51.9c0,0.1,0,0.2,0,0.3c-2.7,1.5-5.7,2.4-9,2.4c-3.3,0-6.4-0.9-9-2.4c0-0.1,0-0.2,0-0.3c0-3.3,4-6,9-6
			C41.2,45.8,45.2,48.5,45.2,51.9z M36.2,56.1c3,0,5.8-0.6,8.3-1.8c-1.4,2.1-4.6,3.6-8.3,3.6c-3.7,0-6.9-1.5-8.3-3.6
			C30.4,55.4,33.2,56.1,36.2,56.1z M33.2,39.2c0-1.7-1.3-3-3-3c-1.7,0-3,1.3-3,3c0,1.7,1.3,3,3,3C31.8,42.2,33.2,40.9,33.2,39.2z
			 M28.9,39.2c0-0.7,0.5-1.2,1.2-1.2c0.7,0,1.2,0.5,1.2,1.2c0,0.7-0.5,1.2-1.2,1.2C29.5,40.4,28.9,39.9,28.9,39.2z M42.2,36.2
			c-1.7,0-3,1.3-3,3c0,1.7,1.3,3,3,3c1.7,0,3-1.4,3-3C45.2,37.5,43.9,36.2,42.2,36.2z M42.2,40.4c-0.7,0-1.2-0.5-1.2-1.2
			c0-0.7,0.5-1.2,1.2-1.2c0.7,0,1.2,0.5,1.2,1.2C43.4,39.9,42.9,40.4,42.2,40.4z M61.2,33.9c0,0.3,0,0.6-0.1,0.8
			c-0.3,2.2-1.5,4.7-2.5,5.4l0,0c0.1-0.2,0.2-0.4,0.2-0.6c1.3-3.5,0.4-7.1-1.9-7.9c-2.1-0.8-4.6,0.9-6,3.7c0,0,0,0,0,0.1
			c0,0.1-0.1,0.2-0.1,0.3c0,0,0,0.1,0,0.1c0,0.1-0.1,0.2-0.1,0.3c0,0,0,0.1,0,0.1c0,0.1-0.1,0.2-0.1,0.4c0,0.1-0.1,0.2-0.1,0.3
			c0,0,0,0.1,0,0.1c0,0.1,0,0.1-0.1,0.2c0,0.1-0.1,0.2-0.1,0.4c0,0,0,0,0,0c0.1-0.4,0.1-0.9,0.1-1.3c0-3.9-3.1-7-7-7
			c-3.9,0-7,3.1-7,7c0-0.5,0-0.5,0,0c0-3.9-3.1-7-7-7c-3.9,0-7,3.1-7,7c0,0.4,0,0.9,0.1,1.3c0,0,0,0,0,0c0-0.1-0.1-0.2-0.1-0.4
			c0-0.1,0-0.1,0-0.2c0,0,0-0.1,0-0.1c0-0.1-0.1-0.2-0.1-0.3c0-0.1-0.1-0.2-0.1-0.4c0,0,0-0.1,0-0.1c0-0.1-0.1-0.2-0.1-0.3
			c0,0,0-0.1,0-0.1c0-0.1-0.1-0.2-0.1-0.3c0,0,0,0,0-0.1c-1.5-2.8-4-4.4-6-3.7c-2.3,0.9-3.2,4.4-1.9,7.9c0.1,0.2,0.2,0.4,0.2,0.6
			l0,0c-1-0.8-2.2-3.2-2.5-5.4c-0.1-0.3-0.1-0.6-0.1-0.8c0,0,0-0.1,0-0.1c0,0,0,0,0,0l0,0c0.1-2.5,2.1-4.5,4.6-4.5
			c0.9,0,1.7,0.2,2.4,0.6c0.4-9.6,8.3-17.3,18.1-17.3c9.7,0,17.7,7.7,18.1,17.3c0.7-0.4,1.5-0.6,2.4-0.6c2.5,0,4.5,2,4.6,4.5l0,0
			c0,0,0,0,0,0C61.2,33.8,61.2,33.9,61.2,33.9z"/>
		<path fill="#002D4E" d="M113.4,31.1c0.3,1,0.5,2,0.5,3.2l0,9.8c0,1.4-0.4,2.4-1.2,3.1c-0.8,0.6-1.7,1-2.9,1c-1.2,0-2.2-0.3-2.9-1
			c-0.8-0.7-1.1-1.7-1.1-3.1l0-7.9c0-1.3-0.2-2.2-0.7-2.7c-0.4-0.5-1.1-0.8-2-0.8c-0.7,0-1.3,0.3-1.9,1c-0.6,0.7-0.9,1.6-0.9,2.8
			l0,7.6c0,1.4-0.4,2.4-1.2,3.1c-0.8,0.6-1.8,1-2.9,1c-1.2,0-2.2-0.3-2.9-1c-0.8-0.6-1.1-1.7-1.1-3.1l0-7.9c0-1.3-0.2-2.2-0.7-2.7
			c-0.4-0.5-1.1-0.8-2-0.8c-0.7,0-1.3,0.3-1.9,1c-0.6,0.7-0.9,1.6-0.9,2.7l0,7.6c0,1.4-0.4,2.4-1.2,3.1c-0.8,0.6-1.8,1-2.9,1
			c-1.2,0-2.2-0.3-2.9-1c-0.8-0.7-1.1-1.7-1.1-3.1l0-13.9c0-1.3,0.3-2.2,1-2.9c0.6-0.7,1.6-1,3-1c1.2,0,2.1,0.3,2.6,1
			c0.5,0.7,0.9,1.6,1,2.9h0.1c0.7-1.2,1.6-2.2,2.7-2.9c1.1-0.7,2.5-1,4.1-1c0.7,0,1.3,0.1,2,0.2c0.7,0.2,1.3,0.4,1.8,0.7
			c0.6,0.3,1,0.7,1.4,1.2c0.4,0.5,0.7,1.1,0.9,1.8c0.9-1.5,1.9-2.5,3-3.1c1.1-0.6,2.4-0.9,3.9-0.9c1.4,0,2.6,0.2,3.6,0.6
			c1,0.4,1.8,1,2.5,1.7C112.6,29.3,113.1,30.1,113.4,31.1z M139.5,32.3c0.6,1.4,0.9,3,0.9,4.9c0,1.9-0.3,3.5-0.9,4.9
			c-0.6,1.4-1.4,2.5-2.5,3.4c-1.1,0.9-2.3,1.6-3.7,2c-1.4,0.4-2.9,0.6-4.6,0.6c-1.6,0-3.2-0.2-4.6-0.6c-1.4-0.4-2.6-1.1-3.7-2
			c-1.1-0.9-1.9-2.1-2.5-3.4c-0.6-1.4-0.9-3-0.9-4.9c0-1.9,0.3-3.5,0.9-4.9c0.6-1.4,1.4-2.5,2.5-3.4c1-0.8,2.1-1.4,3.3-1.9
			c0.1,0,0.3-0.1,0.4-0.1c1.4-0.4,2.9-0.6,4.6-0.6c1.6,0,3.1,0.2,4.6,0.6c1.4,0.4,2.7,1.1,3.7,2C138.1,29.8,138.9,31,139.5,32.3z
			 M132.2,37.5c0-2-0.3-3.4-0.9-4.3c-0.6-0.9-1.5-1.4-2.6-1.4c-1.1,0-2,0.4-2.6,1.4c-0.6,0.9-0.9,2.3-0.9,4.3c0,1.8,0.3,3.1,0.9,3.9
			c0.6,0.8,1.3,1.2,2.3,1.3c0.1,0,0.1,0,0.2,0c1.1,0,2-0.4,2.6-1.3C131.9,40.5,132.2,39.2,132.2,37.5z M174,43
			c-0.6-0.5-1.6-0.7-3.2-0.7c-0.3,0-0.5-0.1-0.7-0.2c-0.2-0.2-0.3-0.4-0.3-0.7l0-9.6l2.4,0c1.7,0,2.5-0.8,2.5-2.4
			c0-1.6-0.8-2.4-2.5-2.4l-2.4,0l0-2.6c0-1.4-0.3-2.5-1-3.1c-0.7-0.6-1.7-1-2.9-1c-1.3,0-2.3,0.3-2.9,1c-0.7,0.7-1,1.7-1,3.1l0,2.6
			l-1.5,0c-1.7,0-2.5,0.8-2.6,2.3c0-1.6-0.9-2.4-2.5-2.4l-2.4,0l0-2.6c0-1.4-0.3-2.5-1-3.1c-0.7-0.6-1.7-1-2.9-1
			c-1.3,0-2.3,0.3-2.9,1c-0.7,0.7-1,1.7-1,3.1l0,2.6l-1.5,0c-1.7,0-2.5,0.8-2.6,2.4c0,1.6,0.8,2.4,2.5,2.4l1.5,0l0,9.6
			c0,2.3,0.6,4.1,1.8,5.2c1.2,1.2,3,1.7,5.3,1.7c1.2,0,2.1-0.1,2.9-0.3c0.7-0.2,1.3-0.4,1.7-0.7c0.4-0.3,0.7-0.6,0.9-1
			c0.2-0.4,0.2-0.8,0.2-1.2c0-1-0.3-1.7-0.8-2.2c-0.6-0.5-1.6-0.7-3.2-0.7c-0.3,0-0.5-0.1-0.7-0.2c-0.2-0.2-0.3-0.4-0.3-0.7l0-9.6
			l2.4,0c1.7,0,2.5-0.8,2.5-2.3c0,1.6,0.9,2.3,2.5,2.4l1.5,0l0,9.6c0,2.3,0.6,4.1,1.8,5.2c1.2,1.2,3,1.7,5.3,1.7
			c1.2,0,2.1-0.1,2.9-0.3c0.7-0.2,1.3-0.4,1.8-0.7c0.4-0.3,0.7-0.6,0.9-1c0.2-0.4,0.2-0.8,0.2-1.2C174.8,44.2,174.6,43.5,174,43z"/>
		<g>
			<path fill="#002D4E" d="M84.1,57.7c-0.1-0.3-0.2-0.5-0.3-0.8c-0.1-0.2-0.3-0.4-0.5-0.6c-0.2-0.1-0.4-0.3-0.7-0.3
				c-0.2-0.1-0.5-0.1-0.8-0.1c-0.5,0-0.9,0.1-1.2,0.3c-0.3,0.2-0.6,0.4-0.9,0.7c-0.2,0.3-0.4,0.6-0.5,1c-0.1,0.4-0.2,0.8-0.2,1.2
				c0,0.4,0.1,0.8,0.2,1.2c0.1,0.4,0.3,0.7,0.5,1c0.2,0.3,0.5,0.5,0.9,0.7c0.3,0.2,0.8,0.3,1.2,0.3c0.3,0,0.6-0.1,0.9-0.2
				c0.3-0.1,0.5-0.3,0.7-0.5c0.2-0.2,0.4-0.5,0.5-0.7c0.1-0.3,0.2-0.6,0.2-0.9h0.7c0,0.4-0.2,0.9-0.3,1.2c-0.2,0.4-0.4,0.7-0.6,0.9
				c-0.3,0.3-0.6,0.5-0.9,0.6c-0.4,0.1-0.7,0.2-1.2,0.2c-0.6,0-1.1-0.1-1.5-0.3c-0.4-0.2-0.8-0.5-1.1-0.8c-0.3-0.4-0.5-0.8-0.6-1.2
				c-0.1-0.5-0.2-0.9-0.2-1.4c0-0.5,0.1-1,0.2-1.4c0.1-0.5,0.4-0.9,0.6-1.2c0.3-0.4,0.6-0.6,1.1-0.8c0.4-0.2,0.9-0.3,1.5-0.3
				c0.3,0,0.7,0.1,1,0.2c0.3,0.1,0.6,0.3,0.9,0.5c0.3,0.2,0.5,0.4,0.7,0.7c0.2,0.3,0.3,0.6,0.3,1H84.1z"/>
			<path fill="#002D4E" d="M86.1,60.3c0,0.2,0,0.5,0.1,0.7c0.1,0.2,0.2,0.5,0.3,0.7c0.1,0.2,0.3,0.4,0.5,0.5
				c0.2,0.1,0.5,0.2,0.8,0.2c0.5,0,0.8-0.1,1.1-0.4c0.3-0.2,0.4-0.6,0.6-1h0.6c-0.1,0.6-0.4,1.1-0.8,1.4c-0.4,0.3-0.9,0.5-1.5,0.5
				c-0.4,0-0.8-0.1-1.1-0.2c-0.3-0.2-0.5-0.4-0.7-0.6c-0.2-0.3-0.3-0.6-0.4-0.9c-0.1-0.3-0.1-0.7-0.1-1.1c0-0.3,0-0.7,0.1-1
				c0.1-0.3,0.2-0.6,0.4-0.9c0.2-0.3,0.4-0.5,0.7-0.6c0.3-0.2,0.7-0.2,1.1-0.2c0.4,0,0.8,0.1,1.1,0.3c0.3,0.2,0.5,0.4,0.7,0.7
				c0.2,0.3,0.3,0.6,0.4,1c0.1,0.4,0.1,0.7,0.1,1.1H86.1z M89.5,59.7c0-0.2,0-0.5-0.1-0.7c-0.1-0.2-0.2-0.4-0.3-0.6
				c-0.1-0.2-0.3-0.3-0.5-0.4c-0.2-0.1-0.4-0.2-0.7-0.2c-0.3,0-0.5,0.1-0.7,0.2c-0.2,0.1-0.4,0.2-0.5,0.4c-0.1,0.2-0.3,0.4-0.3,0.6
				c-0.1,0.2-0.1,0.5-0.2,0.7H89.5z"/>
			<path fill="#002D4E" d="M90.9,57.5h0.6v0.9h0c0.1-0.2,0.1-0.3,0.3-0.4c0.1-0.1,0.2-0.2,0.4-0.3c0.1-0.1,0.3-0.2,0.5-0.2
				c0.2-0.1,0.4-0.1,0.5-0.1c0.4,0,0.7,0,0.9,0.1c0.2,0.1,0.4,0.2,0.6,0.4c0.1,0.2,0.3,0.4,0.3,0.6c0.1,0.3,0.1,0.5,0.1,0.8v3.4
				h-0.6v-3.3c0-0.2,0-0.4-0.1-0.6c0-0.2-0.1-0.4-0.2-0.5c-0.1-0.1-0.2-0.3-0.4-0.3c-0.2-0.1-0.4-0.1-0.6-0.1c-0.3,0-0.5,0-0.7,0.1
				c-0.2,0.1-0.4,0.2-0.5,0.4c-0.1,0.2-0.3,0.4-0.3,0.6c-0.1,0.2-0.1,0.5-0.1,0.7v3.1h-0.6V57.5z"/>
			<path fill="#002D4E" d="M97.3,57.5h1.1V58h-1.1v3.6c0,0.2,0,0.4,0.1,0.5c0.1,0.1,0.2,0.2,0.4,0.2c0.2,0,0.4,0,0.6,0v0.6
				c-0.1,0-0.2,0-0.3,0c-0.1,0-0.2,0-0.3,0c-0.4,0-0.7-0.1-0.9-0.3c-0.2-0.2-0.3-0.5-0.2-0.9V58h-0.9v-0.5h0.9v-1.6h0.6V57.5z"/>
			<path fill="#002D4E" d="M99.2,57.5h0.6v1.2h0c0.2-0.4,0.4-0.8,0.8-1c0.3-0.2,0.8-0.3,1.2-0.3V58c-0.3,0-0.6,0-0.8,0.1
				c-0.2,0.1-0.4,0.2-0.6,0.4c-0.2,0.2-0.3,0.4-0.4,0.6c-0.1,0.2-0.1,0.5-0.1,0.8v2.8h-0.6V57.5z"/>
			<path fill="#002D4E" d="M104.4,57.3c0.4,0,0.8,0.1,1.1,0.2c0.3,0.1,0.6,0.4,0.8,0.6c0.2,0.3,0.4,0.5,0.5,0.9
				c0.1,0.3,0.2,0.7,0.2,1.1c0,0.4-0.1,0.7-0.2,1.1c-0.1,0.3-0.3,0.6-0.5,0.9c-0.2,0.3-0.5,0.5-0.8,0.6c-0.3,0.1-0.7,0.2-1.1,0.2
				c-0.4,0-0.8-0.1-1.1-0.2c-0.3-0.2-0.6-0.4-0.8-0.6c-0.2-0.3-0.4-0.5-0.5-0.9c-0.1-0.3-0.2-0.7-0.2-1.1c0-0.4,0.1-0.7,0.2-1.1
				c0.1-0.3,0.3-0.6,0.5-0.9c0.2-0.3,0.5-0.5,0.8-0.6C103.6,57.4,104,57.3,104.4,57.3z M104.4,57.9c-0.3,0-0.6,0.1-0.8,0.2
				c-0.2,0.1-0.4,0.3-0.6,0.5c-0.2,0.2-0.3,0.5-0.3,0.7c-0.1,0.3-0.1,0.5-0.1,0.8c0,0.3,0,0.6,0.1,0.8c0.1,0.3,0.2,0.5,0.3,0.7
				c0.2,0.2,0.3,0.4,0.6,0.5c0.2,0.1,0.5,0.2,0.8,0.2c0.3,0,0.6-0.1,0.8-0.2c0.2-0.1,0.4-0.3,0.6-0.5c0.2-0.2,0.3-0.5,0.3-0.7
				c0.1-0.3,0.1-0.5,0.1-0.8c0-0.3,0-0.6-0.1-0.8s-0.2-0.5-0.3-0.7c-0.2-0.2-0.3-0.4-0.6-0.5C105,57.9,104.7,57.9,104.4,57.9z"/>
			<path fill="#002D4E" d="M115.1,62.7h-0.6v-1h0c-0.1,0.2-0.2,0.3-0.3,0.5c-0.1,0.1-0.3,0.3-0.5,0.4c-0.2,0.1-0.4,0.2-0.5,0.2
				c-0.2,0.1-0.4,0.1-0.6,0.1c-0.4,0-0.8-0.1-1-0.2c-0.3-0.2-0.5-0.4-0.7-0.6c-0.2-0.3-0.3-0.6-0.4-0.9s-0.1-0.7-0.1-1.1
				c0-0.4,0-0.7,0.1-1.1c0.1-0.3,0.2-0.6,0.4-0.9c0.2-0.3,0.4-0.5,0.7-0.6c0.3-0.1,0.6-0.2,1-0.2c0.2,0,0.4,0,0.6,0.1
				c0.2,0.1,0.4,0.1,0.5,0.2c0.2,0.1,0.3,0.2,0.4,0.4c0.1,0.1,0.2,0.3,0.3,0.5h0v-3h0.6V62.7z M110.9,60.1c0,0.3,0,0.5,0.1,0.8
				c0.1,0.3,0.2,0.5,0.3,0.7c0.1,0.2,0.3,0.4,0.5,0.5c0.2,0.1,0.5,0.2,0.8,0.2c0.3,0,0.6-0.1,0.9-0.2c0.2-0.1,0.4-0.3,0.6-0.5
				c0.1-0.2,0.3-0.5,0.3-0.7c0.1-0.3,0.1-0.5,0.1-0.8c0-0.3,0-0.5-0.1-0.8c-0.1-0.3-0.2-0.5-0.3-0.7c-0.1-0.2-0.3-0.4-0.6-0.5
				c-0.2-0.1-0.5-0.2-0.9-0.2c-0.3,0-0.6,0.1-0.8,0.2c-0.2,0.1-0.4,0.3-0.5,0.5c-0.1,0.2-0.2,0.5-0.3,0.7
				C110.9,59.6,110.9,59.8,110.9,60.1z"/>
			<path fill="#002D4E" d="M116.6,60.3c0,0.2,0,0.5,0.1,0.7c0.1,0.2,0.2,0.5,0.3,0.7c0.1,0.2,0.3,0.4,0.5,0.5
				c0.2,0.1,0.5,0.2,0.8,0.2c0.5,0,0.8-0.1,1.1-0.4c0.3-0.2,0.4-0.6,0.6-1h0.6c-0.1,0.6-0.4,1.1-0.8,1.4c-0.4,0.3-0.9,0.5-1.5,0.5
				c-0.4,0-0.8-0.1-1.1-0.2c-0.3-0.2-0.5-0.4-0.7-0.6c-0.2-0.3-0.3-0.6-0.4-0.9c-0.1-0.3-0.1-0.7-0.1-1.1c0-0.3,0-0.7,0.1-1
				c0.1-0.3,0.2-0.6,0.4-0.9c0.2-0.3,0.4-0.5,0.7-0.6c0.3-0.2,0.7-0.2,1.1-0.2c0.4,0,0.8,0.1,1.1,0.3c0.3,0.2,0.5,0.4,0.7,0.7
				c0.2,0.3,0.3,0.6,0.4,1c0.1,0.4,0.1,0.7,0.1,1.1H116.6z M120,59.7c0-0.2-0.1-0.5-0.1-0.7c-0.1-0.2-0.2-0.4-0.3-0.6
				c-0.1-0.2-0.3-0.3-0.5-0.4c-0.2-0.1-0.4-0.2-0.7-0.2c-0.3,0-0.5,0.1-0.7,0.2c-0.2,0.1-0.4,0.2-0.5,0.4c-0.1,0.2-0.3,0.4-0.3,0.6
				c-0.1,0.2-0.1,0.5-0.2,0.7H120z"/>
			<path fill="#002D4E" d="M124.3,55.4h5V56H125v2.6h4.1v0.6H125v2.9h4.4v0.6h-5.1V55.4z"/>
			<path fill="#002D4E" d="M133.3,59c0-0.2,0-0.4-0.1-0.5c-0.1-0.1-0.2-0.3-0.3-0.4c-0.1-0.1-0.3-0.2-0.4-0.2
				c-0.2,0-0.3-0.1-0.5-0.1c-0.1,0-0.3,0-0.4,0c-0.1,0-0.3,0.1-0.4,0.2c-0.1,0.1-0.2,0.2-0.3,0.3c-0.1,0.1-0.1,0.3-0.1,0.4
				c0,0.1,0,0.3,0.1,0.4c0.1,0.1,0.2,0.2,0.3,0.3c0.1,0.1,0.2,0.1,0.4,0.2c0.1,0,0.2,0.1,0.4,0.1l0.9,0.2c0.2,0,0.4,0.1,0.5,0.1
				c0.2,0.1,0.3,0.2,0.5,0.3c0.1,0.1,0.3,0.3,0.3,0.4c0.1,0.2,0.1,0.4,0.1,0.6c0,0.3-0.1,0.5-0.2,0.7c-0.1,0.2-0.3,0.4-0.5,0.5
				c-0.2,0.1-0.4,0.2-0.7,0.3c-0.3,0.1-0.5,0.1-0.7,0.1c-0.6,0-1.1-0.1-1.5-0.4c-0.4-0.3-0.6-0.8-0.7-1.4h0.6c0,0.4,0.2,0.8,0.5,1
				c0.3,0.2,0.6,0.3,1.1,0.3c0.1,0,0.3,0,0.5-0.1c0.2,0,0.3-0.1,0.5-0.2c0.1-0.1,0.3-0.2,0.4-0.3c0.1-0.1,0.1-0.3,0.1-0.5
				c0-0.1,0-0.3-0.1-0.4c-0.1-0.1-0.2-0.2-0.3-0.3c-0.1-0.1-0.2-0.1-0.4-0.2c-0.1,0-0.3-0.1-0.4-0.1l-0.8-0.2
				c-0.2-0.1-0.4-0.1-0.6-0.2c-0.2-0.1-0.3-0.2-0.5-0.3c-0.1-0.1-0.2-0.2-0.3-0.4c-0.1-0.2-0.1-0.3-0.1-0.6c0-0.3,0.1-0.5,0.2-0.7
				c0.1-0.2,0.3-0.3,0.5-0.5c0.2-0.1,0.4-0.2,0.6-0.3c0.2-0.1,0.5-0.1,0.7-0.1c0.3,0,0.5,0,0.7,0.1c0.2,0.1,0.4,0.2,0.6,0.3
				c0.2,0.1,0.3,0.3,0.4,0.5c0.1,0.2,0.2,0.5,0.2,0.7H133.3z"/>
			<path fill="#002D4E" d="M134.9,57.5h0.6v1h0c0.1-0.4,0.4-0.6,0.7-0.8c0.3-0.2,0.7-0.3,1.1-0.3c0.4,0,0.8,0.1,1,0.2
				c0.3,0.1,0.5,0.4,0.7,0.6c0.2,0.3,0.3,0.6,0.4,0.9c0.1,0.3,0.1,0.7,0.1,1.1c0,0.4,0,0.7-0.1,1.1c-0.1,0.3-0.2,0.6-0.4,0.9
				c-0.2,0.3-0.4,0.5-0.7,0.6c-0.3,0.1-0.6,0.2-1,0.2c-0.2,0-0.4,0-0.6-0.1c-0.2,0-0.4-0.1-0.5-0.2c-0.2-0.1-0.3-0.2-0.4-0.4
				c-0.1-0.1-0.2-0.3-0.3-0.5h0v3h-0.6V57.5z M139.2,60.1c0-0.3,0-0.5-0.1-0.8c-0.1-0.3-0.2-0.5-0.3-0.7c-0.1-0.2-0.3-0.4-0.5-0.5
				c-0.2-0.1-0.5-0.2-0.8-0.2c-0.4,0-0.7,0.1-0.9,0.2c-0.2,0.1-0.4,0.3-0.6,0.5c-0.1,0.2-0.2,0.4-0.3,0.7c-0.1,0.3-0.1,0.6-0.1,0.9
				c0,0.3,0,0.5,0.1,0.8c0.1,0.3,0.2,0.5,0.3,0.7c0.1,0.2,0.3,0.4,0.6,0.5c0.2,0.1,0.5,0.2,0.9,0.2c0.3,0,0.6-0.1,0.8-0.2
				c0.2-0.1,0.4-0.3,0.5-0.5c0.1-0.2,0.2-0.5,0.3-0.7C139.1,60.7,139.2,60.4,139.2,60.1z"/>
			<path fill="#002D4E" d="M141.1,60.3c0,0.2,0,0.5,0.1,0.7c0.1,0.2,0.2,0.5,0.3,0.7c0.1,0.2,0.3,0.4,0.5,0.5
				c0.2,0.1,0.5,0.2,0.8,0.2c0.5,0,0.8-0.1,1.1-0.4c0.3-0.2,0.4-0.6,0.6-1h0.6c-0.1,0.6-0.4,1.1-0.8,1.4c-0.4,0.3-0.9,0.5-1.5,0.5
				c-0.4,0-0.8-0.1-1.1-0.2c-0.3-0.2-0.5-0.4-0.7-0.6c-0.2-0.3-0.3-0.6-0.4-0.9c-0.1-0.3-0.1-0.7-0.1-1.1c0-0.3,0-0.7,0.1-1
				c0.1-0.3,0.2-0.6,0.4-0.9c0.2-0.3,0.4-0.5,0.7-0.6c0.3-0.2,0.7-0.2,1.1-0.2c0.4,0,0.8,0.1,1.1,0.3c0.3,0.2,0.5,0.4,0.7,0.7
				c0.2,0.3,0.3,0.6,0.4,1c0.1,0.4,0.1,0.7,0.1,1.1H141.1z M144.5,59.7c0-0.2-0.1-0.5-0.1-0.7c-0.1-0.2-0.2-0.4-0.3-0.6
				c-0.1-0.2-0.3-0.3-0.5-0.4c-0.2-0.1-0.4-0.2-0.7-0.2c-0.3,0-0.5,0.1-0.7,0.2c-0.2,0.1-0.4,0.2-0.5,0.4c-0.1,0.2-0.3,0.4-0.3,0.6
				c-0.1,0.2-0.1,0.5-0.2,0.7H144.5z"/>
			<path fill="#002D4E" d="M149.6,59.1c-0.1-0.4-0.3-0.7-0.5-0.9c-0.2-0.2-0.6-0.3-1-0.3c-0.3,0-0.6,0.1-0.8,0.2
				c-0.2,0.1-0.4,0.3-0.6,0.5c-0.2,0.2-0.3,0.5-0.3,0.7c-0.1,0.3-0.1,0.5-0.1,0.8c0,0.3,0,0.6,0.1,0.8c0.1,0.3,0.2,0.5,0.3,0.7
				c0.2,0.2,0.3,0.4,0.6,0.5c0.2,0.1,0.5,0.2,0.8,0.2c0.2,0,0.4,0,0.6-0.1c0.2-0.1,0.3-0.2,0.5-0.3c0.1-0.1,0.2-0.3,0.3-0.5
				c0.1-0.2,0.1-0.4,0.2-0.6h0.6c-0.1,0.6-0.3,1.1-0.7,1.5c-0.4,0.4-0.9,0.5-1.5,0.5c-0.4,0-0.8-0.1-1.1-0.2
				c-0.3-0.2-0.6-0.4-0.8-0.6c-0.2-0.3-0.4-0.5-0.5-0.9c-0.1-0.3-0.2-0.7-0.2-1.1c0-0.4,0.1-0.7,0.2-1.1c0.1-0.3,0.3-0.6,0.5-0.9
				c0.2-0.3,0.5-0.5,0.8-0.6c0.3-0.1,0.7-0.2,1.1-0.2c0.6,0,1,0.1,1.4,0.4c0.4,0.3,0.6,0.8,0.7,1.4H149.6z"/>
			<path fill="#002D4E" d="M151.1,55.5h0.6v1h-0.6V55.5z M151.1,57.5h0.6v5.3h-0.6V57.5z"/>
			<path fill="#002D4E" d="M152.8,59.1c0-0.6,0.2-1.1,0.6-1.3c0.4-0.3,0.9-0.4,1.5-0.4c0.2,0,0.5,0,0.7,0.1c0.2,0,0.4,0.1,0.6,0.3
				c0.2,0.1,0.3,0.3,0.4,0.5c0.1,0.2,0.2,0.5,0.2,0.9v2.8c0,0.3,0.1,0.4,0.4,0.4c0.1,0,0.1,0,0.2,0v0.5c-0.1,0-0.1,0-0.2,0
				c-0.1,0-0.1,0-0.2,0c-0.2,0-0.3,0-0.4-0.1c-0.1,0-0.2-0.1-0.2-0.2c-0.1-0.1-0.1-0.2-0.1-0.3c0-0.1,0-0.2,0-0.4h0
				c-0.1,0.2-0.2,0.3-0.4,0.5c-0.1,0.1-0.3,0.2-0.4,0.3c-0.1,0.1-0.3,0.2-0.5,0.2c-0.2,0-0.4,0.1-0.7,0.1c-0.2,0-0.5,0-0.7-0.1
				c-0.2-0.1-0.4-0.2-0.6-0.3c-0.2-0.1-0.3-0.3-0.4-0.5c-0.1-0.2-0.1-0.4-0.1-0.7c0-0.4,0.1-0.7,0.2-0.9c0.2-0.2,0.4-0.4,0.6-0.5
				c0.3-0.1,0.6-0.2,0.9-0.2c0.3,0,0.7-0.1,1-0.1c0.1,0,0.2,0,0.4-0.1c0.1,0,0.2-0.1,0.3-0.1c0.1,0,0.1-0.1,0.2-0.2
				c0-0.1,0.1-0.2,0.1-0.3c0-0.2,0-0.4-0.1-0.5c-0.1-0.1-0.2-0.3-0.3-0.3c-0.1-0.1-0.3-0.1-0.4-0.2c-0.2,0-0.3,0-0.5,0
				c-0.4,0-0.7,0.1-1,0.3c-0.3,0.2-0.4,0.5-0.4,0.9H152.8z M156.3,59.9L156.3,59.9c-0.1,0.1-0.1,0.1-0.3,0.2c-0.1,0-0.2,0.1-0.3,0.1
				c-0.3,0-0.6,0.1-0.8,0.1c-0.3,0-0.6,0.1-0.8,0.2c-0.2,0.1-0.4,0.2-0.6,0.3c-0.2,0.1-0.2,0.3-0.2,0.6c0,0.2,0,0.3,0.1,0.4
				c0.1,0.1,0.2,0.2,0.3,0.3c0.1,0.1,0.2,0.2,0.4,0.2c0.1,0,0.3,0.1,0.4,0.1c0.2,0,0.5,0,0.7-0.1c0.2-0.1,0.4-0.2,0.6-0.3
				c0.2-0.1,0.3-0.3,0.4-0.5c0.1-0.2,0.1-0.4,0.1-0.7V59.9z"/>
			<path fill="#002D4E" d="M158.1,55.4h0.6v7.3h-0.6V55.4z"/>
			<path fill="#002D4E" d="M159.9,55.5h0.6v1h-0.6V55.5z M159.9,57.5h0.6v5.3h-0.6V57.5z"/>
			<path fill="#002D4E" d="M162,62.2h3.6v0.5h-4.4v-0.5l3.4-4.2h-3.2v-0.5h4v0.5L162,62.2z"/>
			<path fill="#002D4E" d="M166.2,59.1c0-0.6,0.2-1.1,0.6-1.3c0.4-0.3,0.9-0.4,1.5-0.4c0.2,0,0.5,0,0.7,0.1c0.2,0,0.4,0.1,0.6,0.3
				c0.2,0.1,0.3,0.3,0.4,0.5c0.1,0.2,0.2,0.5,0.2,0.9v2.8c0,0.3,0.1,0.4,0.4,0.4c0.1,0,0.1,0,0.2,0v0.5c-0.1,0-0.1,0-0.2,0
				c-0.1,0-0.1,0-0.2,0c-0.2,0-0.3,0-0.4-0.1c-0.1,0-0.2-0.1-0.2-0.2c-0.1-0.1-0.1-0.2-0.1-0.3c0-0.1,0-0.2,0-0.4h0
				c-0.1,0.2-0.2,0.3-0.4,0.5c-0.1,0.1-0.3,0.2-0.4,0.3c-0.1,0.1-0.3,0.2-0.5,0.2c-0.2,0-0.4,0.1-0.7,0.1c-0.2,0-0.5,0-0.7-0.1
				c-0.2-0.1-0.4-0.2-0.6-0.3c-0.2-0.1-0.3-0.3-0.4-0.5c-0.1-0.2-0.1-0.4-0.1-0.7c0-0.4,0.1-0.7,0.2-0.9c0.2-0.2,0.4-0.4,0.6-0.5
				c0.3-0.1,0.6-0.2,0.9-0.2c0.3,0,0.7-0.1,1-0.1c0.1,0,0.2,0,0.4-0.1c0.1,0,0.2-0.1,0.3-0.1c0.1,0,0.1-0.1,0.2-0.2
				c0-0.1,0.1-0.2,0.1-0.3c0-0.2,0-0.4-0.1-0.5c-0.1-0.1-0.2-0.3-0.3-0.3c-0.1-0.1-0.3-0.1-0.4-0.2c-0.2,0-0.3,0-0.5,0
				c-0.4,0-0.7,0.1-1,0.3c-0.3,0.2-0.4,0.5-0.4,0.9H166.2z M169.7,59.9L169.7,59.9c-0.1,0.1-0.1,0.1-0.3,0.2c-0.1,0-0.2,0.1-0.3,0.1
				c-0.3,0-0.6,0.1-0.8,0.1c-0.3,0-0.6,0.1-0.8,0.2c-0.2,0.1-0.4,0.2-0.6,0.3c-0.2,0.1-0.2,0.3-0.2,0.6c0,0.2,0,0.3,0.1,0.4
				c0.1,0.1,0.2,0.2,0.3,0.3c0.1,0.1,0.2,0.2,0.4,0.2c0.1,0,0.3,0.1,0.4,0.1c0.2,0,0.5,0,0.7-0.1c0.2-0.1,0.4-0.2,0.6-0.3
				c0.2-0.1,0.3-0.3,0.4-0.5c0.1-0.2,0.1-0.4,0.1-0.7V59.9z"/>
			<path fill="#002D4E" d="M175.2,59.1c-0.1-0.4-0.3-0.7-0.5-0.9c-0.2-0.2-0.6-0.3-1-0.3c-0.3,0-0.6,0.1-0.8,0.2
				c-0.2,0.1-0.4,0.3-0.6,0.5c-0.2,0.2-0.3,0.5-0.3,0.7c-0.1,0.3-0.1,0.5-0.1,0.8c0,0.3,0,0.6,0.1,0.8c0.1,0.3,0.2,0.5,0.3,0.7
				c0.2,0.2,0.3,0.4,0.6,0.5c0.2,0.1,0.5,0.2,0.8,0.2c0.2,0,0.4,0,0.6-0.1c0.2-0.1,0.3-0.2,0.5-0.3c0.1-0.1,0.2-0.3,0.3-0.5
				c0.1-0.2,0.1-0.4,0.2-0.6h0.6c-0.1,0.6-0.3,1.1-0.7,1.5c-0.4,0.4-0.9,0.5-1.5,0.5c-0.4,0-0.8-0.1-1.1-0.2
				c-0.3-0.2-0.6-0.4-0.8-0.6c-0.2-0.3-0.4-0.5-0.5-0.9c-0.1-0.3-0.2-0.7-0.2-1.1c0-0.4,0.1-0.7,0.2-1.1c0.1-0.3,0.3-0.6,0.5-0.9
				c0.2-0.3,0.5-0.5,0.8-0.6c0.3-0.1,0.7-0.2,1.1-0.2c0.6,0,1,0.1,1.4,0.4c0.4,0.3,0.6,0.8,0.7,1.4H175.2z"/>
			<path fill="#002D4E" d="M176.7,55.5h0.6v1h-0.6V55.5z M176.7,57.5h0.6v5.3h-0.6V57.5z"/>
			<path fill="#002D4E" d="M180.7,57.3c0.4,0,0.8,0.1,1.1,0.2c0.3,0.1,0.6,0.4,0.8,0.6c0.2,0.3,0.4,0.5,0.5,0.9
				c0.1,0.3,0.2,0.7,0.2,1.1c0,0.4-0.1,0.7-0.2,1.1c-0.1,0.3-0.3,0.6-0.5,0.9c-0.2,0.3-0.5,0.5-0.8,0.6c-0.3,0.1-0.7,0.2-1.1,0.2
				c-0.4,0-0.8-0.1-1.1-0.2c-0.3-0.2-0.6-0.4-0.8-0.6c-0.2-0.3-0.4-0.5-0.5-0.9c-0.1-0.3-0.2-0.7-0.2-1.1c0-0.4,0.1-0.7,0.2-1.1
				c0.1-0.3,0.3-0.6,0.5-0.9c0.2-0.3,0.5-0.5,0.8-0.6C179.9,57.4,180.3,57.3,180.7,57.3z M180.7,57.9c-0.3,0-0.6,0.1-0.8,0.2
				c-0.2,0.1-0.4,0.3-0.6,0.5c-0.2,0.2-0.3,0.5-0.3,0.7c-0.1,0.3-0.1,0.5-0.1,0.8c0,0.3,0,0.6,0.1,0.8c0.1,0.3,0.2,0.5,0.3,0.7
				c0.2,0.2,0.3,0.4,0.6,0.5c0.2,0.1,0.5,0.2,0.8,0.2c0.3,0,0.6-0.1,0.8-0.2c0.2-0.1,0.4-0.3,0.6-0.5c0.2-0.2,0.3-0.5,0.3-0.7
				c0.1-0.3,0.1-0.5,0.1-0.8c0-0.3,0-0.6-0.1-0.8c-0.1-0.3-0.2-0.5-0.3-0.7c-0.2-0.2-0.3-0.4-0.6-0.5
				C181.3,57.9,181,57.9,180.7,57.9z M180.9,56.7h-0.5l1.1-1.4h0.8L180.9,56.7z"/>
			<path fill="#002D4E" d="M184,57.5h0.6v0.9h0c0.1-0.2,0.1-0.3,0.3-0.4c0.1-0.1,0.2-0.2,0.4-0.3c0.1-0.1,0.3-0.2,0.5-0.2
				c0.2-0.1,0.4-0.1,0.5-0.1c0.4,0,0.7,0,0.9,0.1c0.2,0.1,0.4,0.2,0.6,0.4c0.1,0.2,0.3,0.4,0.3,0.6c0.1,0.3,0.1,0.5,0.1,0.8v3.4
				h-0.6v-3.3c0-0.2,0-0.4-0.1-0.6c0-0.2-0.1-0.4-0.2-0.5c-0.1-0.1-0.2-0.3-0.4-0.3c-0.2-0.1-0.4-0.1-0.6-0.1c-0.3,0-0.5,0-0.7,0.1
				c-0.2,0.1-0.4,0.2-0.5,0.4c-0.1,0.2-0.3,0.4-0.3,0.6c-0.1,0.2-0.1,0.5-0.1,0.7v3.1H184V57.5z"/>
			<path fill="#002D4E" d="M192.3,55.4h2.5c1.1,0,1.9,0.3,2.5,0.9c0.6,0.6,0.8,1.5,0.8,2.7c0,1.2-0.3,2.1-0.8,2.7
				c-0.6,0.6-1.4,0.9-2.5,0.9h-2.5V55.4z M193,62.2h1.5c0.5,0,1-0.1,1.4-0.2c0.4-0.1,0.7-0.3,0.9-0.5c0.2-0.2,0.4-0.6,0.5-0.9
				c0.1-0.4,0.2-0.9,0.2-1.4c0-0.5-0.1-1-0.2-1.4c-0.1-0.4-0.3-0.7-0.5-0.9c-0.2-0.2-0.6-0.4-0.9-0.5c-0.4-0.1-0.8-0.2-1.4-0.2H193
				V62.2z"/>
			<path fill="#002D4E" d="M199.1,55.5h0.6v1h-0.6V55.5z M199.1,57.5h0.6v5.3h-0.6V57.5z"/>
			<path fill="#002D4E" d="M205.3,62.3c0,0.4,0,0.7-0.1,1.1c-0.1,0.3-0.2,0.6-0.4,0.8c-0.2,0.2-0.4,0.4-0.7,0.5
				c-0.3,0.1-0.7,0.2-1.1,0.2c-0.3,0-0.5,0-0.8-0.1c-0.3-0.1-0.5-0.2-0.7-0.3c-0.2-0.1-0.4-0.3-0.5-0.5c-0.1-0.2-0.2-0.4-0.2-0.7
				h0.6c0,0.2,0.1,0.4,0.2,0.5c0.1,0.1,0.2,0.2,0.4,0.3c0.1,0.1,0.3,0.1,0.5,0.2c0.2,0,0.3,0.1,0.5,0.1c0.6,0,1-0.2,1.3-0.5
				c0.3-0.3,0.4-0.8,0.4-1.5v-0.7h0c-0.1,0.3-0.4,0.6-0.7,0.8c-0.3,0.2-0.6,0.3-1,0.3c-0.4,0-0.8-0.1-1.1-0.2
				c-0.3-0.1-0.5-0.3-0.7-0.6c-0.2-0.2-0.3-0.5-0.4-0.9c-0.1-0.3-0.1-0.7-0.1-1.1c0-0.4,0.1-0.7,0.2-1c0.1-0.3,0.3-0.6,0.5-0.8
				c0.2-0.2,0.4-0.4,0.7-0.6c0.3-0.1,0.6-0.2,1-0.2c0.4,0,0.7,0.1,1,0.3c0.3,0.2,0.5,0.5,0.6,0.8h0v-0.9h0.6V62.3z M203,62.1
				c0.3,0,0.5-0.1,0.7-0.2c0.2-0.1,0.4-0.3,0.5-0.5c0.1-0.2,0.3-0.4,0.3-0.7c0.1-0.3,0.1-0.5,0.1-0.8c0-0.3,0-0.5-0.1-0.8
				c-0.1-0.3-0.2-0.5-0.3-0.7c-0.1-0.2-0.3-0.4-0.5-0.5c-0.2-0.1-0.5-0.2-0.8-0.2c-0.3,0-0.6,0.1-0.8,0.2c-0.2,0.1-0.4,0.3-0.5,0.5
				c-0.1,0.2-0.2,0.4-0.3,0.7c-0.1,0.3-0.1,0.5-0.1,0.8c0,0.3,0,0.5,0.1,0.8c0.1,0.3,0.2,0.5,0.3,0.7c0.1,0.2,0.3,0.4,0.5,0.5
				C202.4,62.1,202.7,62.1,203,62.1z"/>
			<path fill="#002D4E" d="M206.5,55.5h0.6v1h-0.6V55.5z M206.5,57.5h0.6v5.3h-0.6V57.5z"/>
			<path fill="#002D4E" d="M209.3,57.5h1.1V58h-1.1v3.6c0,0.2,0,0.4,0.1,0.5c0.1,0.1,0.2,0.2,0.4,0.2c0.2,0,0.4,0,0.6,0v0.6
				c-0.1,0-0.2,0-0.3,0c-0.1,0-0.2,0-0.3,0c-0.4,0-0.7-0.1-0.9-0.3c-0.2-0.2-0.3-0.5-0.2-0.9V58h-0.9v-0.5h0.9v-1.6h0.6V57.5z"/>
			<path fill="#002D4E" d="M211.1,59.1c0-0.6,0.2-1.1,0.6-1.3c0.4-0.3,0.9-0.4,1.5-0.4c0.2,0,0.5,0,0.7,0.1c0.2,0,0.4,0.1,0.6,0.3
				c0.2,0.1,0.3,0.3,0.4,0.5c0.1,0.2,0.2,0.5,0.2,0.9v2.8c0,0.3,0.1,0.4,0.4,0.4c0.1,0,0.1,0,0.2,0v0.5c-0.1,0-0.1,0-0.2,0
				c-0.1,0-0.1,0-0.2,0c-0.2,0-0.3,0-0.4-0.1c-0.1,0-0.2-0.1-0.2-0.2c-0.1-0.1-0.1-0.2-0.1-0.3c0-0.1,0-0.2,0-0.4h0
				c-0.1,0.2-0.2,0.3-0.4,0.5c-0.1,0.1-0.3,0.2-0.4,0.3c-0.1,0.1-0.3,0.2-0.5,0.2c-0.2,0-0.4,0.1-0.7,0.1c-0.2,0-0.5,0-0.7-0.1
				c-0.2-0.1-0.4-0.2-0.6-0.3c-0.2-0.1-0.3-0.3-0.4-0.5c-0.1-0.2-0.1-0.4-0.1-0.7c0-0.4,0.1-0.7,0.2-0.9c0.2-0.2,0.4-0.4,0.6-0.5
				c0.3-0.1,0.6-0.2,0.9-0.2c0.3,0,0.7-0.1,1-0.1c0.1,0,0.2,0,0.4-0.1c0.1,0,0.2-0.1,0.3-0.1c0.1,0,0.1-0.1,0.2-0.2
				c0-0.1,0.1-0.2,0.1-0.3c0-0.2,0-0.4-0.1-0.5c-0.1-0.1-0.2-0.3-0.3-0.3c-0.1-0.1-0.3-0.1-0.4-0.2c-0.2,0-0.3,0-0.5,0
				c-0.4,0-0.7,0.1-1,0.3c-0.3,0.2-0.4,0.5-0.4,0.9H211.1z M214.5,59.9L214.5,59.9c-0.1,0.1-0.1,0.1-0.3,0.2c-0.1,0-0.2,0.1-0.3,0.1
				c-0.3,0-0.6,0.1-0.8,0.1c-0.3,0-0.6,0.1-0.8,0.2c-0.2,0.1-0.4,0.2-0.6,0.3c-0.2,0.1-0.2,0.3-0.2,0.6c0,0.2,0,0.3,0.1,0.4
				c0.1,0.1,0.2,0.2,0.3,0.3c0.1,0.1,0.2,0.2,0.4,0.2c0.1,0,0.3,0.1,0.4,0.1c0.2,0,0.5,0,0.7-0.1c0.2-0.1,0.4-0.2,0.6-0.3
				c0.2-0.1,0.3-0.3,0.4-0.5c0.1-0.2,0.1-0.4,0.1-0.7V59.9z"/>
			<path fill="#002D4E" d="M216.4,55.4h0.6v7.3h-0.6V55.4z"/>
		</g>
	</g>
</g>
</svg>
