<?xml version="1.0" encoding="utf-8"?>
<!-- Generator: Adobe Illustrator 18.1.0, SVG Export Plug-In . SVG Version: 6.00 Build 0)  -->
<svg version="1.1" id="Capa_1" xmlns="http://www.w3.org/2000/svg" xmlns:xlink="http://www.w3.org/1999/xlink" x="0px" y="0px"
	 viewBox="0 0 182 77" enable-background="new 0 0 182 77" xml:space="preserve">
<path fill="#FFFFFF" d="M37.8,1C17,1,0.2,17.8,0.2,38.5C0.2,59.2,17,76,37.8,76c20.7,0,37.5-16.8,37.5-37.5C75.3,17.8,58.5,1,37.8,1
	z M37.8,70.4c-17.6,0-31.9-14.3-31.9-31.9c0-17.6,14.3-31.9,31.9-31.9c17.6,0,31.9,14.3,31.9,31.9C69.7,56.1,55.4,70.4,37.8,70.4z
	 M47.2,54.8c0,0.1,0,0.2,0,0.3c-2.8,1.6-6,2.5-9.4,2.5c-3.4,0-6.6-0.9-9.4-2.5c0-0.1,0-0.2,0-0.3c0-3.5,4.2-6.3,9.4-6.3
	C43,48.5,47.2,51.3,47.2,54.8z M37.8,59.2c3.1,0,6-0.7,8.6-1.9c-1.5,2.2-4.8,3.7-8.6,3.7c-3.8,0-7.1-1.5-8.6-3.7
	C31.8,58.5,34.7,59.2,37.8,59.2z M34.6,41.6c0-1.7-1.4-3.1-3.1-3.1c-1.7,0-3.1,1.4-3.1,3.1c0,1.7,1.4,3.1,3.1,3.1
	C33.2,44.8,34.6,43.4,34.6,41.6z M30.3,41.6c0-0.7,0.6-1.3,1.3-1.3c0.7,0,1.3,0.6,1.3,1.3c0,0.7-0.6,1.3-1.3,1.3
	C30.8,42.9,30.3,42.3,30.3,41.6z M44,38.5c-1.7,0-3.1,1.4-3.1,3.1c0,1.7,1.4,3.1,3.1,3.1c1.7,0,3.1-1.4,3.1-3.1
	C47.2,39.9,45.8,38.5,44,38.5z M44,42.9c-0.7,0-1.3-0.6-1.3-1.3c0-0.7,0.6-1.3,1.3-1.3c0.7,0,1.3,0.6,1.3,1.3
	C45.3,42.3,44.7,42.9,44,42.9z M63.7,36.2c0,0.3,0,0.6-0.1,0.9c-0.3,2.3-1.6,4.8-2.6,5.6c0,0,0,0,0,0c0.1-0.2,0.2-0.4,0.2-0.6
	c1.3-3.7,0.5-7.4-2-8.2c-2.1-0.8-4.8,0.9-6.3,3.8c0,0,0,0.1,0,0.1c0,0.1-0.1,0.2-0.1,0.3c0,0,0,0.1-0.1,0.1c0,0.1-0.1,0.2-0.1,0.3
	c0,0,0,0.1,0,0.1c-0.1,0.1-0.1,0.3-0.1,0.4c0,0.1-0.1,0.2-0.1,0.3c0,0,0,0.1,0,0.1c0,0.1,0,0.1-0.1,0.2c0,0.1-0.1,0.2-0.1,0.4
	c0,0,0,0,0,0c0.1-0.4,0.1-0.9,0.1-1.4c0-4-3.3-7.3-7.3-7.3c-4,0-7.3,3.3-7.3,7.3c0-0.5,0-0.5,0,0c0-4-3.3-7.3-7.3-7.3
	c-4,0-7.3,3.3-7.3,7.3c0,0.5,0,0.9,0.1,1.4c0,0,0,0,0,0c0-0.1-0.1-0.2-0.1-0.4c0-0.1,0-0.1-0.1-0.2c0,0,0-0.1,0-0.1
	c0-0.1-0.1-0.2-0.1-0.3c0-0.1-0.1-0.3-0.1-0.4c0,0,0-0.1,0-0.1c0-0.1-0.1-0.2-0.1-0.3c0,0,0-0.1-0.1-0.1c0-0.1-0.1-0.2-0.1-0.3
	c0,0,0-0.1,0-0.1c-1.5-2.9-4.1-4.6-6.3-3.8c-2.4,0.9-3.3,4.6-2,8.2c0.1,0.2,0.2,0.4,0.2,0.6c0,0,0,0,0,0c-1-0.8-2.3-3.3-2.6-5.6
	c-0.1-0.3-0.1-0.6-0.1-0.9c0,0,0-0.1,0-0.1c0,0,0,0,0,0l0,0c0.1-2.6,2.2-4.6,4.8-4.6c0.9,0,1.7,0.2,2.4,0.7
	c0.4-10,8.7-17.9,18.7-17.9c10.1,0,18.3,8,18.7,17.9c0.7-0.4,1.5-0.7,2.4-0.7c2.6,0,4.7,2.1,4.8,4.6l0,0c0,0,0,0,0,0
	C63.7,36.1,63.7,36.1,63.7,36.2z"/>
<path fill="#FFFFFF" d="M117.9,33.3c0.3,1,0.5,2.1,0.5,3.3l0,10.1c0,1.5-0.4,2.5-1.2,3.2c-0.8,0.7-1.8,1-3.1,1c-1.2,0-2.3-0.3-3.1-1
	c-0.8-0.7-1.2-1.7-1.2-3.2l0-8.1c0-1.3-0.2-2.3-0.7-2.8c-0.5-0.5-1.2-0.8-2.1-0.8c-0.7,0-1.4,0.3-2,1c-0.6,0.7-0.9,1.6-0.9,2.9
	l0,7.9c0,1.5-0.4,2.5-1.2,3.2c-0.8,0.7-1.8,1-3.1,1c-1.2,0-2.3-0.3-3-1c-0.8-0.7-1.2-1.7-1.2-3.2l0-8.1c0-1.4-0.2-2.3-0.7-2.8
	c-0.5-0.5-1.2-0.8-2.1-0.8c-0.7,0-1.4,0.3-2,1c-0.6,0.7-0.9,1.6-0.9,2.9l0,7.9c0,1.5-0.4,2.5-1.2,3.2c-0.8,0.7-1.8,1-3.1,1
	c-1.2,0-2.3-0.3-3.1-1c-0.8-0.7-1.2-1.7-1.2-3.2l0-14.4c0-1.3,0.3-2.3,1-3c0.7-0.7,1.7-1,3.1-1c1.3,0,2.2,0.3,2.7,1
	c0.6,0.7,0.9,1.7,1,3h0.1c0.7-1.3,1.7-2.3,2.8-3c1.2-0.7,2.6-1,4.2-1c0.7,0,1.4,0.1,2.1,0.2c0.7,0.2,1.3,0.4,1.9,0.7
	c0.6,0.3,1.1,0.8,1.5,1.3c0.4,0.5,0.7,1.2,0.9,1.9c0.9-1.5,2-2.6,3.1-3.2c1.2-0.6,2.5-0.9,4-0.9c1.5,0,2.7,0.2,3.8,0.6
	c1,0.4,1.9,1,2.6,1.8C117.1,31.4,117.6,32.3,117.9,33.3z M144.9,34.5c0.6,1.4,0.9,3.1,0.9,5.1c0,2-0.3,3.7-0.9,5.1
	c-0.6,1.4-1.5,2.6-2.6,3.6c-1.1,0.9-2.4,1.6-3.9,2.1c-1.5,0.4-3,0.7-4.7,0.7c-1.7,0-3.3-0.2-4.7-0.7c-1.5-0.4-2.7-1.1-3.8-2.1
	c-1.1-0.9-2-2.1-2.6-3.6c-0.6-1.4-0.9-3.1-0.9-5.1c0-2,0.3-3.6,0.9-5.1c0.6-1.4,1.5-2.6,2.6-3.5c1-0.8,2.1-1.5,3.4-1.9
	c0.1,0,0.3-0.1,0.4-0.1c1.5-0.4,3-0.7,4.7-0.7c1.7,0,3.3,0.2,4.7,0.7c1.5,0.4,2.8,1.1,3.9,2.1C143.5,31.9,144.3,33.1,144.9,34.5z
	 M137.4,39.9c0-2-0.3-3.5-0.9-4.5c-0.6-0.9-1.5-1.4-2.7-1.4c-1.2,0-2,0.5-2.7,1.4c-0.6,0.9-0.9,2.4-0.9,4.5c0,1.8,0.3,3.2,0.9,4.1
	c0.6,0.8,1.4,1.3,2.4,1.3c0.1,0,0.2,0,0.2,0c1.2,0,2-0.4,2.7-1.3C137,43,137.4,41.7,137.4,39.9z M180.7,45.6
	c-0.6-0.5-1.7-0.7-3.3-0.7c-0.3,0-0.5-0.1-0.7-0.2c-0.2-0.2-0.3-0.4-0.3-0.7l0-10l2.5,0c1.8,0,2.6-0.8,2.6-2.5
	c0-1.7-0.9-2.5-2.6-2.5l-2.5,0l0-2.7c0-1.5-0.4-2.6-1.1-3.2c-0.7-0.7-1.7-1-3.1-1c-1.3,0-2.3,0.3-3.1,1c-0.7,0.7-1.1,1.8-1.1,3.2
	l0,2.7l-1.6,0c-1.7,0-2.6,0.8-2.6,2.4c0-1.6-0.9-2.4-2.6-2.4l-2.5,0l0-2.7c0-1.5-0.4-2.6-1.1-3.3c-0.7-0.7-1.7-1-3.1-1
	c-1.3,0-2.3,0.3-3.1,1c-0.7,0.7-1.1,1.8-1.1,3.2l0,2.7l-1.6,0c-1.8,0-2.6,0.8-2.6,2.5c0,1.7,0.9,2.5,2.6,2.5l1.6,0l0,10
	c0,2.4,0.6,4.2,1.9,5.4c1.3,1.2,3.1,1.8,5.5,1.8c1.2,0,2.2-0.1,3-0.3c0.8-0.2,1.4-0.4,1.8-0.7c0.4-0.3,0.7-0.6,0.9-1
	c0.2-0.4,0.2-0.8,0.2-1.2c0-1-0.3-1.7-0.9-2.2c-0.6-0.5-1.7-0.7-3.3-0.7c-0.3,0-0.5-0.1-0.7-0.2c-0.2-0.2-0.3-0.4-0.3-0.7l0-10
	l2.5,0c1.7,0,2.6-0.8,2.6-2.4c0,1.6,0.9,2.4,2.6,2.4l1.6,0l0,10c0,2.4,0.6,4.2,1.9,5.4c1.3,1.2,3.1,1.8,5.5,1.8c1.2,0,2.2-0.1,3-0.3
	c0.8-0.2,1.4-0.4,1.8-0.7c0.4-0.3,0.7-0.6,0.9-1c0.2-0.4,0.2-0.8,0.2-1.2C181.6,46.8,181.3,46.1,180.7,45.6z"/>
</svg>
