<?xml version="1.0" encoding="utf-8"?>
<!-- Generator: Adobe Illustrator 18.0.0, SVG Export Plug-In . SVG Version: 6.00 Build 0)  -->
<!DOCTYPE svg PUBLIC "-//W3C//DTD SVG 1.1//EN" "http://www.w3.org/Graphics/SVG/1.1/DTD/svg11.dtd">
<svg version="1.1" id="Capa_1" xmlns="http://www.w3.org/2000/svg" xmlns:xlink="http://www.w3.org/1999/xlink" x="0px" y="0px"
	 viewBox="0 0 55.7 57.9" enable-background="new 0 0 55.7 57.9" xml:space="preserve">
<g>
	<path fill="#032F4C" d="M20.2,48c0.2,0.6,0.3,1.2,0.3,1.8l0,5.6c0,0.8-0.2,1.4-0.7,1.8c-0.4,0.4-1,0.6-1.7,0.6
		c-0.7,0-1.3-0.2-1.7-0.6c-0.4-0.4-0.7-1-0.7-1.8l0-4.5c0-0.8-0.1-1.3-0.4-1.6c-0.3-0.3-0.6-0.4-1.2-0.4c-0.4,0-0.8,0.2-1.1,0.6
		c-0.3,0.4-0.5,0.9-0.5,1.6l0,4.4c0,0.8-0.2,1.4-0.7,1.8c-0.4,0.4-1,0.6-1.7,0.6c-0.7,0-1.3-0.2-1.7-0.6c-0.4-0.4-0.7-1-0.7-1.8
		l0-4.5c0-0.8-0.1-1.3-0.4-1.6c-0.3-0.3-0.6-0.5-1.2-0.5c-0.4,0-0.8,0.2-1.1,0.6c-0.3,0.4-0.5,0.9-0.5,1.6l0,4.4
		c0,0.8-0.2,1.4-0.7,1.8c-0.4,0.4-1,0.6-1.7,0.6c-0.7,0-1.3-0.2-1.7-0.6c-0.4-0.4-0.7-1-0.7-1.8l0-8c0-0.7,0.2-1.3,0.6-1.7
		c0.4-0.4,0.9-0.6,1.7-0.6c0.7,0,1.2,0.2,1.5,0.6c0.3,0.4,0.5,0.9,0.6,1.7h0c0.4-0.7,0.9-1.3,1.6-1.7c0.6-0.4,1.4-0.6,2.3-0.6
		c0.4,0,0.8,0,1.2,0.1c0.4,0.1,0.7,0.2,1.1,0.4c0.3,0.2,0.6,0.4,0.8,0.7c0.2,0.3,0.4,0.6,0.5,1.1c0.5-0.8,1.1-1.4,1.8-1.8
		c0.7-0.4,1.4-0.5,2.3-0.5c0.8,0,1.5,0.1,2.1,0.4c0.6,0.2,1.1,0.6,1.4,1C19.8,47,20.1,47.5,20.2,48z M35.3,48.7
		c0.3,0.8,0.5,1.7,0.5,2.8c0,1.1-0.2,2-0.5,2.8c-0.3,0.8-0.8,1.5-1.4,2c-0.6,0.5-1.3,0.9-2.1,1.1c-0.8,0.2-1.7,0.4-2.6,0.4
		c-1,0-1.8-0.1-2.6-0.4c-0.8-0.2-1.5-0.6-2.1-1.2c-0.6-0.5-1.1-1.2-1.4-2c-0.3-0.8-0.5-1.7-0.5-2.8c0-1.1,0.2-2,0.5-2.8
		c0.3-0.8,0.8-1.4,1.4-2c0.6-0.5,1.2-0.8,1.9-1.1c0.1,0,0.2-0.1,0.2-0.1c0.8-0.2,1.7-0.4,2.6-0.4c0.9,0,1.8,0.1,2.6,0.4
		c0.8,0.2,1.5,0.6,2.1,1.2C34.5,47.3,35,47.9,35.3,48.7z M31.1,51.7c0-1.1-0.2-2-0.5-2.5c-0.3-0.5-0.8-0.8-1.5-0.8
		c-0.6,0-1.1,0.3-1.5,0.8c-0.3,0.5-0.5,1.4-0.5,2.5c0,1,0.2,1.8,0.5,2.3c0.3,0.5,0.8,0.7,1.4,0.7c0,0,0.1,0,0.1,0
		c0.6,0,1.1-0.2,1.5-0.7C30.9,53.5,31.1,52.7,31.1,51.7z M55.2,54.9c-0.3-0.3-0.9-0.4-1.8-0.4c-0.2,0-0.3,0-0.4-0.1
		c-0.1-0.1-0.1-0.2-0.1-0.4l0-5.6l1.4,0c1,0,1.5-0.5,1.5-1.4c0-0.9-0.5-1.4-1.5-1.4l-1.4,0l0-1.5c0-0.8-0.2-1.4-0.6-1.8
		c-0.4-0.4-1-0.6-1.7-0.6c-0.7,0-1.3,0.2-1.7,0.6c-0.4,0.4-0.6,1-0.6,1.8l0,1.5l-0.9,0c-1,0-1.5,0.5-1.5,1.4c0-0.9-0.5-1.4-1.5-1.4
		l-1.4,0l0-1.5c0-0.8-0.2-1.4-0.6-1.8c-0.4-0.4-1-0.6-1.7-0.6c-0.7,0-1.3,0.2-1.7,0.6c-0.4,0.4-0.6,1-0.6,1.8l0,1.5l-0.9,0
		c-1,0-1.5,0.5-1.5,1.4c0,0.9,0.5,1.4,1.5,1.4l0.9,0l0,5.6c0,1.4,0.3,2.4,1.1,3c0.7,0.7,1.7,1,3.1,1c0.7,0,1.2,0,1.7-0.1
		c0.4-0.1,0.8-0.2,1-0.4c0.2-0.2,0.4-0.3,0.5-0.6c0.1-0.2,0.1-0.4,0.1-0.7c0-0.6-0.2-1-0.5-1.2c-0.3-0.3-0.9-0.4-1.8-0.4
		c-0.2,0-0.3,0-0.4-0.1c-0.1-0.1-0.1-0.2-0.1-0.4l0-5.6l1.4,0c1,0,1.5-0.5,1.5-1.4c0,0.9,0.5,1.4,1.5,1.4l0.9,0l0,5.6
		c0,1.4,0.3,2.4,1.1,3c0.7,0.7,1.7,1,3.1,1c0.7,0,1.2,0,1.7-0.1c0.4-0.1,0.8-0.2,1-0.4c0.2-0.2,0.4-0.3,0.5-0.6
		c0.1-0.2,0.1-0.4,0.1-0.7C55.7,55.6,55.6,55.2,55.2,54.9z"/>
	<path fill="#032F4C" d="M28,0C16.5,0,7.1,9.4,7.1,20.9S16.5,41.8,28,41.8c11.5,0,20.9-9.4,20.9-20.9S39.6,0,28,0z M28,38.7
		c-9.8,0-17.8-8-17.8-17.8S18.2,3.1,28,3.1c9.8,0,17.8,8,17.8,17.8S37.8,38.7,28,38.7z M33.2,30c0,0.1,0,0.1,0,0.2
		c-1.5,0.9-3.3,1.4-5.2,1.4c-1.9,0-3.7-0.5-5.2-1.4c0-0.1,0-0.1,0-0.2c0-1.9,2.3-3.5,5.2-3.5C30.9,26.5,33.2,28,33.2,30z M28,32.4
		c1.7,0,3.3-0.4,4.8-1c-0.8,1.2-2.6,2.1-4.8,2.1c-2.1,0-4-0.9-4.8-2.1C24.7,32,26.3,32.4,28,32.4z M26.3,22.6c0-1-0.8-1.7-1.7-1.7
		c-1,0-1.7,0.8-1.7,1.7c0,1,0.8,1.7,1.7,1.7C25.5,24.4,26.3,23.6,26.3,22.6z M23.8,22.6c0-0.4,0.3-0.7,0.7-0.7
		c0.4,0,0.7,0.3,0.7,0.7c0,0.4-0.3,0.7-0.7,0.7C24.1,23.3,23.8,23,23.8,22.6z M31.5,20.9c-1,0-1.7,0.8-1.7,1.7c0,1,0.8,1.7,1.7,1.7
		c1,0,1.7-0.8,1.7-1.7C33.2,21.7,32.5,20.9,31.5,20.9z M31.5,23.3c-0.4,0-0.7-0.3-0.7-0.7c0-0.4,0.3-0.7,0.7-0.7
		c0.4,0,0.7,0.3,0.7,0.7C32.2,23,31.9,23.3,31.5,23.3z M42.5,19.6c0,0.2,0,0.3,0,0.5c-0.2,1.3-0.9,2.7-1.4,3.1c0,0,0,0,0,0
		c0-0.1,0.1-0.2,0.1-0.3c0.7-2,0.3-4.1-1.1-4.6c-1.2-0.4-2.7,0.5-3.5,2.1c0,0,0,0,0,0c0,0.1-0.1,0.1-0.1,0.2c0,0,0,0,0,0.1
		c0,0.1,0,0.1-0.1,0.2c0,0,0,0,0,0.1c0,0.1-0.1,0.1-0.1,0.2c0,0.1,0,0.1-0.1,0.2c0,0,0,0,0,0.1c0,0,0,0.1,0,0.1c0,0.1,0,0.1-0.1,0.2
		c0,0,0,0,0,0c0-0.2,0.1-0.5,0.1-0.8c0-2.2-1.8-4.1-4.1-4.1c-2.2,0-4.1,1.8-4.1,4.1c0-0.3,0-0.3,0,0c0-2.2-1.8-4.1-4.1-4.1
		c-2.2,0-4.1,1.8-4.1,4.1c0,0.3,0,0.5,0.1,0.8c0,0,0,0,0,0c0-0.1,0-0.1-0.1-0.2c0,0,0-0.1,0-0.1c0,0,0,0,0-0.1c0-0.1,0-0.1-0.1-0.2
		c0-0.1-0.1-0.1-0.1-0.2c0,0,0,0,0-0.1c0-0.1,0-0.1-0.1-0.2c0,0,0,0,0-0.1c0-0.1,0-0.1-0.1-0.2c0,0,0,0,0,0
		c-0.8-1.6-2.3-2.6-3.5-2.1c-1.4,0.5-1.8,2.5-1.1,4.6c0,0.1,0.1,0.2,0.1,0.3c0,0,0,0,0,0c-0.6-0.4-1.3-1.9-1.4-3.1
		c0-0.2,0-0.3,0-0.5c0,0,0-0.1,0-0.1c0,0,0,0,0,0h0c0.1-1.4,1.2-2.6,2.7-2.6c0.5,0,1,0.1,1.4,0.4c0.2-5.6,4.8-10,10.4-10
		c5.6,0,10.2,4.4,10.4,10c0.4-0.2,0.9-0.4,1.4-0.4C41.2,16.9,42.4,18.1,42.5,19.6L42.5,19.6C42.5,19.5,42.5,19.5,42.5,19.6
		C42.5,19.5,42.5,19.6,42.5,19.6z"/>
</g>
</svg>
