<?xml version="1.0" encoding="utf-8"?>
<!-- Generator: Adobe Illustrator 18.0.0, SVG Export Plug-In . SVG Version: 6.00 Build 0)  -->
<!DOCTYPE svg PUBLIC "-//W3C//DTD SVG 1.1//EN" "http://www.w3.org/Graphics/SVG/1.1/DTD/svg11.dtd">
<svg version="1.1" id="Capa_1" xmlns="http://www.w3.org/2000/svg" xmlns:xlink="http://www.w3.org/1999/xlink" x="0px" y="0px"
	 viewBox="0 0 159.5 77.1" enable-background="new 0 0 159.5 77.1" xml:space="preserve">
<g>
	<path fill="#595959" d="M6,71.5h0.9v0.3c0,1.1-0.2,1.8-0.6,2S5,74.2,3.5,74.2c-1.3,0-2.2-0.2-2.6-0.7s-0.5-1.6-0.5-3.4
		c0-1.4,0-2.3,0.1-2.6s0.3-0.7,0.7-1c0.5-0.3,1.4-0.5,2.9-0.5c1,0,1.7,0.2,2.1,0.5s0.5,0.9,0.5,1.8l0,0.2H5.9l0-0.2
		c0-0.6-0.1-1.1-0.3-1.2s-0.7-0.3-1.4-0.3c-1.3,0-2.1,0.1-2.4,0.3S1.4,68,1.4,68.9c0,2.2,0.1,3.6,0.3,3.9s0.8,0.6,2,0.6
		c1.1,0,1.7-0.1,2-0.3S6,72.6,6,71.9L6,71.5z"/>
	<path fill="#595959" d="M11.8,72.5h0.8l0,0.2c0,0.6-0.2,1-0.5,1.2s-1,0.3-1.9,0.3c-1,0-1.7-0.2-2-0.6s-0.5-1.2-0.5-2.4
		c0-1.1,0.2-1.9,0.5-2.3s1-0.6,1.9-0.6c1,0,1.7,0.2,2,0.5s0.5,1,0.5,2.1v0.4h-4c0,0.9,0.1,1.4,0.3,1.7s0.6,0.4,1.3,0.4
		c0.7,0,1.1-0.1,1.3-0.2s0.3-0.4,0.3-0.7V72.5z M11.8,70.9l0-0.3c0-0.6-0.1-1-0.3-1.2s-0.6-0.3-1.3-0.3c-0.7,0-1.1,0.1-1.3,0.3
		s-0.3,0.7-0.3,1.4H11.8z"/>
	<path fill="#595959" d="M13.9,68.5h0.8l0,0.8l0,0c0.3-0.6,0.9-0.9,1.9-0.9c0.8,0,1.3,0.1,1.6,0.4s0.4,0.8,0.4,1.6v3.6h-0.8v-3.6
		v-0.2c0-0.5-0.1-0.8-0.3-1s-0.5-0.2-1.1-0.2c-1.2,0-1.7,0.5-1.7,1.6v3.4h-0.8V68.5z"/>
	<path fill="#595959" d="M23.1,68.5v0.7h-2.2v3.4c0,0.6,0.3,0.9,0.8,0.9c0.5,0,0.8-0.3,0.8-0.8l0-0.3l0-0.3h0.8l0,0.4
		c0,1.1-0.5,1.7-1.6,1.7c-1.1,0-1.6-0.5-1.6-1.4v-0.2v-3.4h-0.8v-0.7h0.8v-1.3h0.8v1.3H23.1z"/>
	<path fill="#595959" d="M24.2,68.5H25l-0.1,0.6l0,0c0.3-0.5,0.9-0.8,1.6-0.8c1,0,1.5,0.5,1.5,1.6l0,0.4h-0.8l0-0.1
		c0-0.1,0-0.2,0-0.3c0-0.6-0.3-0.9-0.9-0.9c-0.9,0-1.4,0.6-1.4,1.7v3.4h-0.8V68.5z"/>
	<path fill="#595959" d="M31.2,68.5c1,0,1.7,0.2,2,0.5s0.5,1.1,0.5,2.3s-0.2,2-0.5,2.3s-1,0.5-2,0.5c-1,0-1.7-0.2-2-0.5
		s-0.5-1.1-0.5-2.3s0.2-2,0.5-2.3S30.2,68.5,31.2,68.5z M31.2,69.1c-0.7,0-1.2,0.1-1.4,0.4s-0.3,0.9-0.3,1.8s0.1,1.6,0.3,1.8
		s0.6,0.4,1.4,0.4c0.7,0,1.2-0.1,1.4-0.4s0.3-0.9,0.3-1.8s-0.1-1.6-0.3-1.8S31.9,69.1,31.2,69.1z"/>
	<path fill="#595959" d="M42.6,66.1v8h-0.8l0-0.7l0,0c-0.3,0.5-0.9,0.8-1.8,0.8c-0.9,0-1.4-0.2-1.8-0.6s-0.5-1.2-0.5-2.3
		c0-1.1,0.2-1.8,0.5-2.2s0.9-0.6,1.7-0.6c1,0,1.6,0.3,1.8,0.8l0,0v-3.1H42.6z M40.1,69.1c-0.6,0-1,0.1-1.2,0.4s-0.3,0.8-0.3,1.7
		c0,0.9,0.1,1.6,0.3,1.8s0.6,0.4,1.2,0.4c0.7,0,1.1-0.1,1.3-0.4s0.3-0.9,0.3-1.9c0-0.8-0.1-1.3-0.3-1.6S40.8,69.1,40.1,69.1z"/>
	<path fill="#595959" d="M48,72.5h0.8l0,0.2c0,0.6-0.2,1-0.5,1.2s-1,0.3-1.9,0.3c-1,0-1.7-0.2-2-0.6s-0.5-1.2-0.5-2.4
		c0-1.1,0.2-1.9,0.5-2.3s1-0.6,1.9-0.6c1,0,1.7,0.2,2,0.5s0.5,1,0.5,2.1v0.4h-4c0,0.9,0.1,1.4,0.3,1.7s0.6,0.4,1.3,0.4
		c0.7,0,1.1-0.1,1.3-0.2S48,73,48,72.6V72.5z M48,70.9l0-0.3c0-0.6-0.1-1-0.3-1.2s-0.6-0.3-1.3-0.3c-0.7,0-1.1,0.1-1.3,0.3
		s-0.3,0.7-0.3,1.4H48z"/>
	<path fill="#595959" d="M53.7,66.9v2.7h4.1v0.8h-4.1v3H58v0.8h-5.1v-8H58v0.8H53.7z"/>
	<path fill="#595959" d="M63.4,70h-0.8c0-0.4-0.1-0.6-0.2-0.7s-0.6-0.1-1.2-0.1c-0.6,0-1,0-1.2,0.1s-0.2,0.3-0.2,0.7
		c0,0.6,0.3,0.9,0.8,0.9l0.7,0l0.8,0c1,0.1,1.5,0.6,1.5,1.6c0,0.6-0.2,1.1-0.5,1.3s-1,0.4-1.8,0.4c-0.9,0-1.5-0.1-1.9-0.3
		s-0.5-0.6-0.5-1.2l0-0.3h0.8l0,0.3c0,0.4,0.1,0.6,0.3,0.7s0.6,0.2,1.1,0.2c0.7,0,1.1-0.1,1.3-0.2s0.3-0.4,0.3-0.8
		c0-0.6-0.3-0.9-0.8-0.9c-1.2,0-2.1-0.1-2.5-0.3s-0.6-0.6-0.6-1.3c0-0.6,0.2-1,0.5-1.3s0.9-0.3,1.9-0.3c1.5,0,2.2,0.4,2.2,1.3V70z"
		/>
	<path fill="#595959" d="M64.7,68.5h0.8l0,0.7l0,0c0.3-0.5,0.9-0.8,1.8-0.8c0.8,0,1.4,0.2,1.7,0.6s0.5,1.2,0.5,2.3
		c0,1.1-0.2,1.8-0.5,2.2s-0.9,0.6-1.7,0.6c-0.9,0-1.5-0.2-1.8-0.7h0v3.1h-0.8V68.5z M67.1,69.1c-0.7,0-1.1,0.1-1.3,0.4
		s-0.3,0.9-0.3,1.8c0,0.9,0.1,1.4,0.3,1.7s0.6,0.4,1.3,0.4c0.6,0,1-0.1,1.2-0.4s0.3-0.8,0.3-1.7c0-1-0.1-1.6-0.3-1.9
		S67.8,69.1,67.1,69.1z"/>
	<path fill="#595959" d="M74.8,72.5h0.8l0,0.2c0,0.6-0.2,1-0.5,1.2s-1,0.3-1.9,0.3c-1,0-1.7-0.2-2-0.6s-0.5-1.2-0.5-2.4
		c0-1.1,0.2-1.9,0.5-2.3s1-0.6,1.9-0.6c1,0,1.7,0.2,2,0.5s0.5,1,0.5,2.1v0.4h-4c0,0.9,0.1,1.4,0.3,1.7s0.6,0.4,1.3,0.4
		c0.7,0,1.1-0.1,1.3-0.2s0.3-0.4,0.3-0.7V72.5z M74.8,70.9l0-0.3c0-0.6-0.1-1-0.3-1.2s-0.6-0.3-1.3-0.3c-0.7,0-1.1,0.1-1.3,0.3
		s-0.3,0.7-0.3,1.4H74.8z"/>
	<path fill="#595959" d="M80.8,72.1h0.8l0,0.3c0,1.2-0.8,1.8-2.4,1.8c-1,0-1.7-0.2-2-0.6s-0.5-1.2-0.5-2.3c0-1.1,0.2-1.9,0.5-2.3
		s1-0.6,1.9-0.6c0.9,0,1.5,0.1,1.9,0.4s0.5,0.8,0.5,1.5h-0.8v-0.1c0-0.4-0.1-0.7-0.3-0.9s-0.6-0.2-1.3-0.2c-0.6,0-1,0.1-1.2,0.4
		s-0.3,0.9-0.3,1.8c0,0.9,0.1,1.5,0.3,1.8s0.7,0.4,1.4,0.4c0.6,0,1-0.1,1.2-0.2S80.8,72.7,80.8,72.1z"/>
	<path fill="#595959" d="M83.5,66.1v0.9h-0.8v-0.9H83.5z M83.5,68.5v5.6h-0.8v-5.6H83.5z"/>
	<path fill="#595959" d="M85.8,70.1h-0.8c0-0.7,0.1-1.1,0.4-1.3s0.9-0.3,1.7-0.3c0.9,0,1.6,0.1,1.9,0.4s0.5,0.8,0.5,1.6v3.7h-0.8
		l0.1-0.6l0,0c-0.3,0.5-0.9,0.7-1.9,0.7c-1.4,0-2.1-0.6-2.1-1.7c0-0.7,0.2-1.1,0.5-1.4s0.9-0.4,1.7-0.4c1,0,1.6,0.2,1.8,0.6l0,0
		v-0.7c0-0.6-0.1-1.1-0.3-1.2s-0.6-0.3-1.2-0.3c-1,0-1.5,0.3-1.5,0.8C85.8,70,85.8,70,85.8,70.1z M87.1,71.4c-0.6,0-1,0.1-1.2,0.2
		s-0.3,0.4-0.3,0.9c0,0.5,0.1,0.8,0.3,0.9s0.6,0.2,1.1,0.2c1.2,0,1.7-0.4,1.7-1.1c0-0.4-0.1-0.7-0.3-0.9S87.7,71.4,87.1,71.4z"/>
	<path fill="#595959" d="M91.9,66.1v8h-0.8v-8H91.9z"/>
	<path fill="#595959" d="M94.1,66.1v0.9h-0.8v-0.9H94.1z M94.1,68.5v5.6h-0.8v-5.6H94.1z"/>
	<path fill="#595959" d="M95.3,68.5h4v0.8L96,73.5h3.3v0.7H95v-0.8l3.4-4.1h-3.1V68.5z"/>
	<path fill="#595959" d="M101.2,70.1h-0.8c0-0.7,0.1-1.1,0.4-1.3s0.9-0.3,1.7-0.3c0.9,0,1.6,0.1,1.9,0.4s0.5,0.8,0.5,1.6v3.7h-0.8
		l0.1-0.6l0,0c-0.3,0.5-0.9,0.7-1.9,0.7c-1.4,0-2.1-0.6-2.1-1.7c0-0.7,0.2-1.1,0.5-1.4s0.9-0.4,1.7-0.4c1,0,1.6,0.2,1.8,0.6l0,0
		v-0.7c0-0.6-0.1-1.1-0.3-1.2s-0.6-0.3-1.2-0.3c-1,0-1.5,0.3-1.5,0.8C101.2,70,101.2,70,101.2,70.1z M102.5,71.4
		c-0.6,0-1,0.1-1.2,0.2S101,72,101,72.4c0,0.5,0.1,0.8,0.3,0.9s0.6,0.2,1.1,0.2c1.2,0,1.7-0.4,1.7-1.1c0-0.4-0.1-0.7-0.3-0.9
		S103.2,71.4,102.5,71.4z"/>
	<path fill="#595959" d="M110.3,72.1h0.8l0,0.3c0,1.2-0.8,1.8-2.4,1.8c-1,0-1.7-0.2-2-0.6s-0.5-1.2-0.5-2.3c0-1.1,0.2-1.9,0.5-2.3
		s1-0.6,1.9-0.6c0.9,0,1.5,0.1,1.9,0.4s0.5,0.8,0.5,1.5h-0.8v-0.1c0-0.4-0.1-0.7-0.3-0.9s-0.6-0.2-1.3-0.2c-0.6,0-1,0.1-1.2,0.4
		s-0.3,0.9-0.3,1.8c0,0.9,0.1,1.5,0.3,1.8s0.7,0.4,1.4,0.4c0.6,0,1-0.1,1.2-0.2S110.3,72.7,110.3,72.1z"/>
	<path fill="#595959" d="M113.1,66.1v0.9h-0.8v-0.9H113.1z M113.1,68.5v5.6h-0.8v-5.6H113.1z"/>
	<path fill="#595959" d="M116.8,68.5c1,0,1.7,0.2,2,0.5s0.5,1.1,0.5,2.3s-0.2,2-0.5,2.3s-1,0.5-2,0.5c-1,0-1.7-0.2-2-0.5
		s-0.5-1.1-0.5-2.3s0.2-2,0.5-2.3S115.8,68.5,116.8,68.5z M116.8,69.1c-0.7,0-1.2,0.1-1.4,0.4s-0.3,0.9-0.3,1.8s0.1,1.6,0.3,1.8
		s0.6,0.4,1.4,0.4c0.7,0,1.2-0.1,1.4-0.4s0.3-0.9,0.3-1.8s-0.1-1.6-0.3-1.8S117.6,69.1,116.8,69.1z M117.7,66.2l0.4,0.6l-1.7,1.1
		l-0.3-0.4L117.7,66.2z"/>
	<path fill="#595959" d="M120.5,68.5h0.8l0,0.8l0,0c0.3-0.6,0.9-0.9,1.9-0.9c0.8,0,1.3,0.1,1.6,0.4s0.4,0.8,0.4,1.6v3.6h-0.8v-3.6
		v-0.2c0-0.5-0.1-0.8-0.3-1s-0.5-0.2-1.1-0.2c-1.2,0-1.7,0.5-1.7,1.6v3.4h-0.8V68.5z"/>
	<path fill="#595959" d="M129.8,74.1v-8h3.7c1.1,0,1.9,0.3,2.3,0.8s0.6,1.5,0.6,2.9c0,1.7-0.2,2.9-0.5,3.5s-1.1,0.9-2.2,0.9H129.8z
		 M130.7,73.4h2.6c1,0,1.6-0.2,1.9-0.6s0.4-1.2,0.4-2.6c0-1.5-0.1-2.4-0.4-2.8s-0.8-0.6-1.7-0.6h-2.8V73.4z"/>
	<path fill="#595959" d="M138.4,66.1v0.9h-0.8v-0.9H138.4z M138.4,68.5v5.6h-0.8v-5.6H138.4z"/>
	<path fill="#595959" d="M144.4,68.5v6c0,0.8-0.2,1.4-0.5,1.7s-1,0.5-1.9,0.5c-0.8,0-1.4-0.1-1.7-0.4s-0.5-0.7-0.5-1.4h0.8
		c0,0.5,0.1,0.8,0.3,0.9s0.6,0.2,1.2,0.2c0.6,0,1-0.1,1.3-0.3s0.3-0.6,0.3-1.1v-1.1l0,0c-0.2,0.5-0.8,0.8-1.8,0.8
		c-0.8,0-1.4-0.2-1.7-0.6s-0.5-1.2-0.5-2.2c0-1.1,0.2-1.9,0.5-2.3s0.9-0.6,1.8-0.6c0.9,0,1.5,0.3,1.8,0.8l0,0l0-0.8H144.4z
		 M142,69.1c-0.6,0-1.1,0.1-1.3,0.4s-0.3,0.9-0.3,1.8c0,0.9,0.1,1.5,0.3,1.8s0.6,0.4,1.3,0.4c0.7,0,1.1-0.2,1.3-0.5s0.3-0.9,0.3-1.9
		c0-0.8-0.1-1.4-0.3-1.7S142.6,69.1,142,69.1z"/>
	<path fill="#595959" d="M146.7,66.1v0.9h-0.8v-0.9H146.7z M146.7,68.5v5.6h-0.8v-5.6H146.7z"/>
	<path fill="#595959" d="M151.1,68.5v0.7h-2.2v3.4c0,0.6,0.3,0.9,0.8,0.9c0.5,0,0.8-0.3,0.8-0.8l0-0.3l0-0.3h0.8l0,0.4
		c0,1.1-0.5,1.7-1.6,1.7c-1.1,0-1.6-0.5-1.6-1.4v-0.2v-3.4h-0.8v-0.7h0.8v-1.3h0.8v1.3H151.1z"/>
	<path fill="#595959" d="M153,70.1h-0.8c0-0.7,0.1-1.1,0.4-1.3s0.9-0.3,1.7-0.3c0.9,0,1.6,0.1,1.9,0.4s0.5,0.8,0.5,1.6v3.7h-0.8
		l0.1-0.6l0,0c-0.3,0.5-0.9,0.7-1.9,0.7c-1.4,0-2.1-0.6-2.1-1.7c0-0.7,0.2-1.1,0.5-1.4s0.9-0.4,1.7-0.4c1,0,1.6,0.2,1.8,0.6l0,0
		v-0.7c0-0.6-0.1-1.1-0.3-1.2s-0.6-0.3-1.2-0.3c-1,0-1.5,0.3-1.5,0.8C153,70,153,70,153,70.1z M154.3,71.4c-0.6,0-1,0.1-1.2,0.2
		s-0.3,0.4-0.3,0.9c0,0.5,0.1,0.8,0.3,0.9s0.6,0.2,1.1,0.2c1.2,0,1.7-0.4,1.7-1.1c0-0.4-0.1-0.7-0.3-0.9S154.9,71.4,154.3,71.4z"/>
	<path fill="#595959" d="M159.1,66.1v8h-0.8v-8H159.1z"/>
</g>
<g>
	<path fill="#032F4C" d="M70.3,48c0.2,0.6,0.3,1.2,0.3,1.8l0,5.6c0,0.8-0.2,1.4-0.7,1.8c-0.4,0.4-1,0.6-1.7,0.6
		c-0.7,0-1.3-0.2-1.7-0.6c-0.4-0.4-0.7-1-0.7-1.8l0-4.5c0-0.8-0.1-1.3-0.4-1.6c-0.3-0.3-0.6-0.4-1.2-0.4c-0.4,0-0.8,0.2-1.1,0.6
		c-0.3,0.4-0.5,0.9-0.5,1.6l0,4.4c0,0.8-0.2,1.4-0.7,1.8c-0.4,0.4-1,0.6-1.7,0.6c-0.7,0-1.3-0.2-1.7-0.6c-0.4-0.4-0.7-1-0.7-1.8
		l0-4.5c0-0.8-0.1-1.3-0.4-1.6c-0.3-0.3-0.6-0.5-1.2-0.5c-0.4,0-0.8,0.2-1.1,0.6c-0.3,0.4-0.5,0.9-0.5,1.6l0,4.4
		c0,0.8-0.2,1.4-0.7,1.8c-0.4,0.4-1,0.6-1.7,0.6c-0.7,0-1.3-0.2-1.7-0.6c-0.4-0.4-0.7-1-0.7-1.8l0-8c0-0.7,0.2-1.3,0.6-1.7
		c0.4-0.4,0.9-0.6,1.7-0.6c0.7,0,1.2,0.2,1.5,0.6c0.3,0.4,0.5,0.9,0.6,1.7h0c0.4-0.7,0.9-1.3,1.6-1.7c0.6-0.4,1.4-0.6,2.3-0.6
		c0.4,0,0.8,0,1.2,0.1c0.4,0.1,0.7,0.2,1.1,0.4c0.3,0.2,0.6,0.4,0.8,0.7c0.2,0.3,0.4,0.6,0.5,1.1c0.5-0.8,1.1-1.4,1.8-1.8
		c0.7-0.4,1.4-0.5,2.3-0.5c0.8,0,1.5,0.1,2.1,0.4c0.6,0.2,1.1,0.6,1.4,1C69.8,47,70.1,47.5,70.3,48z M85.4,48.7
		c0.3,0.8,0.5,1.7,0.5,2.8c0,1.1-0.2,2-0.5,2.8c-0.3,0.8-0.8,1.5-1.4,2c-0.6,0.5-1.3,0.9-2.1,1.1c-0.8,0.2-1.7,0.4-2.6,0.4
		c-1,0-1.8-0.1-2.6-0.4c-0.8-0.2-1.5-0.6-2.1-1.2c-0.6-0.5-1.1-1.2-1.4-2c-0.3-0.8-0.5-1.7-0.5-2.8c0-1.1,0.2-2,0.5-2.8
		c0.3-0.8,0.8-1.4,1.4-2c0.6-0.5,1.2-0.8,1.9-1.1c0.1,0,0.2-0.1,0.2-0.1c0.8-0.2,1.7-0.4,2.6-0.4c0.9,0,1.8,0.1,2.6,0.4
		c0.8,0.2,1.5,0.6,2.1,1.2C84.5,47.3,85,47.9,85.4,48.7z M81.1,51.7c0-1.1-0.2-2-0.5-2.5c-0.3-0.5-0.8-0.8-1.5-0.8
		c-0.6,0-1.1,0.3-1.5,0.8c-0.3,0.5-0.5,1.4-0.5,2.5c0,1,0.2,1.8,0.5,2.3c0.3,0.5,0.8,0.7,1.4,0.7c0,0,0.1,0,0.1,0
		c0.6,0,1.1-0.2,1.5-0.7C81,53.5,81.1,52.7,81.1,51.7z M105.3,54.9c-0.3-0.3-0.9-0.4-1.8-0.4c-0.2,0-0.3,0-0.4-0.1
		c-0.1-0.1-0.1-0.2-0.1-0.4l0-5.6l1.4,0c1,0,1.5-0.5,1.5-1.4c0-0.9-0.5-1.4-1.5-1.4l-1.4,0l0-1.5c0-0.8-0.2-1.4-0.6-1.8
		c-0.4-0.4-1-0.6-1.7-0.6c-0.7,0-1.3,0.2-1.7,0.6c-0.4,0.4-0.6,1-0.6,1.8l0,1.5l-0.9,0c-1,0-1.5,0.5-1.5,1.4c0-0.9-0.5-1.4-1.5-1.4
		l-1.4,0l0-1.5c0-0.8-0.2-1.4-0.6-1.8c-0.4-0.4-1-0.6-1.7-0.6c-0.7,0-1.3,0.2-1.7,0.6c-0.4,0.4-0.6,1-0.6,1.8l0,1.5l-0.9,0
		c-1,0-1.5,0.5-1.5,1.4c0,0.9,0.5,1.4,1.5,1.4l0.9,0l0,5.6c0,1.4,0.3,2.4,1.1,3c0.7,0.7,1.7,1,3.1,1c0.7,0,1.2,0,1.7-0.1
		c0.4-0.1,0.8-0.2,1-0.4c0.2-0.2,0.4-0.3,0.5-0.6c0.1-0.2,0.1-0.4,0.1-0.7c0-0.6-0.2-1-0.5-1.2c-0.3-0.3-0.9-0.4-1.8-0.4
		c-0.2,0-0.3,0-0.4-0.1c-0.1-0.1-0.1-0.2-0.1-0.4l0-5.6l1.4,0c1,0,1.5-0.5,1.5-1.4c0,0.9,0.5,1.4,1.5,1.4l0.9,0l0,5.6
		c0,1.4,0.3,2.4,1.1,3c0.7,0.7,1.7,1,3.1,1c0.7,0,1.2,0,1.7-0.1c0.4-0.1,0.8-0.2,1-0.4c0.2-0.2,0.4-0.3,0.5-0.6
		c0.1-0.2,0.1-0.4,0.1-0.7C105.8,55.6,105.6,55.2,105.3,54.9z"/>
	<path fill="#032F4C" d="M78.1,0C66.5,0,57.2,9.4,57.2,20.9s9.4,20.9,20.9,20.9c11.5,0,20.9-9.4,20.9-20.9S89.6,0,78.1,0z
		 M78.1,38.7c-9.8,0-17.8-8-17.8-17.8s8-17.8,17.8-17.8c9.8,0,17.8,8,17.8,17.8S87.9,38.7,78.1,38.7z M83.3,30c0,0.1,0,0.1,0,0.2
		c-1.5,0.9-3.3,1.4-5.2,1.4c-1.9,0-3.7-0.5-5.2-1.4c0-0.1,0-0.1,0-0.2c0-1.9,2.3-3.5,5.2-3.5C80.9,26.5,83.3,28,83.3,30z M78.1,32.4
		c1.7,0,3.3-0.4,4.8-1c-0.8,1.2-2.6,2.1-4.8,2.1c-2.1,0-4-0.9-4.8-2.1C74.7,32,76.4,32.4,78.1,32.4z M76.3,22.6c0-1-0.8-1.7-1.7-1.7
		c-1,0-1.7,0.8-1.7,1.7c0,1,0.8,1.7,1.7,1.7C75.5,24.4,76.3,23.6,76.3,22.6z M73.9,22.6c0-0.4,0.3-0.7,0.7-0.7
		c0.4,0,0.7,0.3,0.7,0.7c0,0.4-0.3,0.7-0.7,0.7C74.2,23.3,73.9,23,73.9,22.6z M81.5,20.9c-1,0-1.7,0.8-1.7,1.7c0,1,0.8,1.7,1.7,1.7
		c1,0,1.7-0.8,1.7-1.7C83.3,21.7,82.5,20.9,81.5,20.9z M81.5,23.3c-0.4,0-0.7-0.3-0.7-0.7c0-0.4,0.3-0.7,0.7-0.7
		c0.4,0,0.7,0.3,0.7,0.7C82.2,23,81.9,23.3,81.5,23.3z M92.5,19.6c0,0.2,0,0.3,0,0.5c-0.2,1.3-0.9,2.7-1.4,3.1c0,0,0,0,0,0
		c0-0.1,0.1-0.2,0.1-0.3c0.7-2,0.3-4.1-1.1-4.6c-1.2-0.4-2.7,0.5-3.5,2.1c0,0,0,0,0,0c0,0.1-0.1,0.1-0.1,0.2c0,0,0,0,0,0.1
		c0,0.1,0,0.1-0.1,0.2c0,0,0,0,0,0.1c0,0.1-0.1,0.1-0.1,0.2c0,0.1,0,0.1-0.1,0.2c0,0,0,0,0,0.1c0,0,0,0.1,0,0.1c0,0.1,0,0.1-0.1,0.2
		c0,0,0,0,0,0c0-0.2,0.1-0.5,0.1-0.8c0-2.2-1.8-4.1-4.1-4.1c-2.2,0-4.1,1.8-4.1,4.1c0-0.3,0-0.3,0,0c0-2.2-1.8-4.1-4.1-4.1
		c-2.2,0-4.1,1.8-4.1,4.1c0,0.3,0,0.5,0.1,0.8c0,0,0,0,0,0c0-0.1,0-0.1-0.1-0.2c0,0,0-0.1,0-0.1c0,0,0,0,0-0.1c0-0.1,0-0.1-0.1-0.2
		c0-0.1-0.1-0.1-0.1-0.2c0,0,0,0,0-0.1c0-0.1,0-0.1-0.1-0.2c0,0,0,0,0-0.1c0-0.1,0-0.1-0.1-0.2c0,0,0,0,0,0
		c-0.8-1.6-2.3-2.6-3.5-2.1c-1.4,0.5-1.8,2.5-1.1,4.6c0,0.1,0.1,0.2,0.1,0.3c0,0,0,0,0,0c-0.6-0.4-1.3-1.9-1.4-3.1
		c0-0.2,0-0.3,0-0.5c0,0,0-0.1,0-0.1c0,0,0,0,0,0h0c0.1-1.4,1.2-2.6,2.7-2.6c0.5,0,1,0.1,1.4,0.4c0.2-5.6,4.8-10,10.4-10
		c5.6,0,10.2,4.4,10.4,10c0.4-0.2,0.9-0.4,1.4-0.4C91.3,16.9,92.5,18.1,92.5,19.6L92.5,19.6C92.5,19.5,92.5,19.5,92.5,19.6
		C92.5,19.5,92.5,19.6,92.5,19.6z"/>
</g>
</svg>
